<svg version="1.0" xmlns="http://www.w3.org/2000/svg"
 width="100px" height="100px" viewBox="0 0 100 100"
 preserveAspectRatio="xMidYMid meet">
<g transform="translate(0.000000,100.000000) scale(0.044444,-0.044444)"
fill="currentColor" stroke="none">
<path d="M1045 2011 c-53 -25 -299 -274 -320 -323 -19 -46 -19 -118 -1 -161
13 -32 248 -274 296 -306 23 -15 9 -16 -230 -21 -249 -5 -256 -6 -289 -29 -45
-33 -71 -92 -71 -167 l0 -62 -79 -3 c-69 -4 -85 -8 -122 -34 -76 -54 -84 -81
-87 -307 -2 -127 1 -212 8 -240 16 -58 82 -121 143 -136 57 -15 388 -16 438
-2 56 16 101 51 129 100 23 42 25 56 28 213 5 206 -2 263 -34 314 -42 63 -84
86 -173 93 l-76 5 -3 43 -3 42 526 0 526 0 -3 -42 -3 -43 -77 -5 c-65 -5 -85
-11 -119 -35 -76 -54 -84 -81 -87 -307 -2 -127 1 -212 8 -240 16 -58 82 -121
143 -136 57 -15 388 -16 438 -2 56 16 101 51 129 100 23 42 25 56 28 221 5
217 -5 274 -56 332 -47 51 -86 67 -167 67 l-65 0 0 63 c0 82 -30 143 -86 174
-37 22 -49 23 -280 23 l-242 0 150 148 c154 151 187 197 188 261 0 79 -19 111
-153 248 -77 79 -146 141 -171 153 -53 25 -128 26 -181 1z m219 -270 c101
-101 117 -121 108 -137 -13 -24 -236 -244 -247 -244 -12 0 -245 232 -245 244
0 14 242 256 255 256 6 0 64 -53 129 -119z m-559 -1161 l0 -185 -185 -3 c-165
-2 -186 -1 -197 15 -16 21 -18 315 -3 344 10 18 21 19 198 17 l187 -3 0 -185z
m1220 0 l0 -185 -192 -3 -193 -2 0 183 c0 101 3 187 7 191 4 3 90 5 192 4
l186 -3 0 -185z"/>
</g>
</svg>
