<?xml version="1.0" encoding="UTF-8"?>
<svg xmlns="http://www.w3.org/2000/svg" width="100px" height="100px" viewBox="0 0 100 100" version="1.1">
<g id="surface1">
<path fill="currentColor" d="M 8.878906 0.316406 C 6.632812 0.785156 4.722656 1.871094 3.0625 3.625 C 1.796875 4.945312 0.777344 6.71875 0.367188 8.265625 C -0.253906 10.667969 0 13.882812 0.960938 15.828125 C 1.804688 17.527344 2.828125 18.597656 19.886719 35.648438 L 34.214844 49.980469 L 20.09375 64.109375 C 3.277344 80.925781 1.804688 82.460938 0.980469 84.128906 C 0.183594 85.71875 -0.164062 88.140625 0.09375 90.25 C 0.613281 94.390625 3.703125 98.054688 7.804688 99.378906 C 10.429688 100.234375 14.113281 99.917969 16.183594 98.675781 C 17.867188 97.667969 19.101562 96.476562 35.582031 80.070312 L 50 65.714844 L 64.355469 80.019531 C 80.671875 96.265625 82.152344 97.679688 83.816406 98.675781 C 85.03125 99.410156 86.867188 99.847656 88.695312 99.859375 C 90.714844 99.859375 92.039062 99.574219 93.621094 98.800781 C 97.082031 97.109375 99.460938 93.871094 99.90625 90.25 C 100.144531 88.285156 99.835938 85.902344 99.144531 84.363281 C 98.328125 82.5625 97.539062 81.738281 77.867188 62.074219 L 65.777344 49.988281 L 80.113281 35.65625 C 96.417969 19.351562 97.804688 17.90625 98.828125 16.226562 C 99.765625 14.679688 100.183594 12.082031 99.898438 9.671875 C 99.4375 5.875 96.601562 2.3125 92.878906 0.855469 C 90.5625 -0.0625 87.714844 -0.121094 85.304688 0.671875 C 82.960938 1.457031 83.050781 1.363281 63.886719 20.417969 L 49.988281 34.242188 L 38.03125 22.332031 C 19.265625 3.644531 17.621094 2.054688 16.328125 1.382812 C 14.144531 0.234375 11.246094 -0.171875 8.878906 0.316406 Z M 8.878906 0.316406 "/>
</g>
</svg>
