<?xml version="1.0" encoding="UTF-8"?>
<svg xmlns="http://www.w3.org/2000/svg" xmlns:xlink="http://www.w3.org/1999/xlink" width="108px" height="100px" viewBox="0 0 108 100" version="1.1">
<g id="surface1">
<path fill="currentColor" fill-opacity="1" d="M 3.722656 0.140625 C 2.347656 0.335938 1.164062 1.226562 0.535156 2.519531 L 0.210938 3.167969 L 0.210938 96.777344 L 0.605469 97.578125 C 1.039062 98.453125 1.671875 99.058594 2.667969 99.550781 C 3.230469 99.816406 3.582031 99.859375 5.871094 99.914062 L 8.429688 99.972656 L 8.429688 95.722656 L 20.929688 95.722656 L 20.929688 99.945312 L 87.222656 99.945312 L 87.265625 97.859375 L 87.308594 95.792969 L 93.515625 95.75 L 99.726562 95.722656 L 99.769531 97.789062 L 99.808594 99.875 L 102.339844 99.875 C 104.824219 99.875 104.882812 99.859375 105.667969 99.480469 C 106.523438 99.058594 107.144531 98.4375 107.632812 97.507812 L 107.957031 96.917969 L 107.957031 3.027344 L 107.535156 2.28125 C 107.058594 1.394531 106.539062 0.914062 105.570312 0.480469 C 104.9375 0.183594 104.628906 0.15625 102.339844 0.113281 L 99.808594 0.0703125 L 99.769531 4.265625 L 99.738281 8.445312 L 93.515625 8.417969 L 87.308594 8.375 L 87.265625 4.25 L 87.238281 0.140625 L 86.5625 0.125 C 84.257812 0.0546875 21.171875 0.0859375 21.058594 0.140625 C 20.988281 0.183594 20.917969 2.054688 20.902344 4.292969 L 20.859375 8.375 L 14.652344 8.417969 L 8.429688 8.445312 L 8.429688 0.183594 L 7.488281 0.0976562 C 6.308594 -0.015625 4.648438 0 3.722656 0.140625 Z M 20.929688 27.097656 L 20.929688 33.363281 L 8.429688 33.363281 L 8.429688 20.832031 L 20.929688 20.832031 Z M 99.738281 27.097656 L 99.738281 33.363281 L 93.53125 33.332031 L 87.308594 33.292969 L 87.265625 27.238281 C 87.25 23.902344 87.265625 21.101562 87.308594 21.003906 C 87.351562 20.875 88.742188 20.832031 93.558594 20.832031 L 99.738281 20.832031 Z M 46.007812 31.417969 C 46.160156 31.503906 52.425781 35.148438 59.914062 39.511719 C 69.789062 45.285156 73.679688 47.621094 74.058594 48.027344 C 74.789062 48.804688 75.015625 49.832031 74.691406 50.859375 C 74.550781 51.296875 74.269531 51.789062 74.003906 52.042969 C 73.46875 52.546875 46.34375 68.441406 45.570312 68.695312 C 44.277344 69.128906 42.664062 68.398438 41.960938 67.074219 L 41.652344 66.511719 L 41.652344 33.433594 L 41.960938 32.839844 C 42.707031 31.445312 44.714844 30.742188 46.007812 31.417969 Z M 20.929688 52.082031 L 20.929688 58.277344 L 8.429688 58.277344 L 8.429688 45.890625 L 20.929688 45.890625 Z M 99.738281 52.082031 L 99.738281 58.277344 L 87.238281 58.277344 L 87.238281 45.890625 L 99.738281 45.890625 Z M 20.929688 77 L 20.929688 83.191406 L 8.429688 83.191406 L 8.429688 70.804688 L 20.929688 70.804688 Z M 99.738281 77 L 99.738281 83.191406 L 87.238281 83.191406 L 87.238281 70.804688 L 99.738281 70.804688 Z M 99.738281 77 "/>
</g>
</svg>
