<?xml version="1.0" encoding="UTF-8"?>
<svg xmlns="http://www.w3.org/2000/svg" width="100px" height="100px" viewBox="0 0 100 100" version="1.1">
<g id="surface1">
<path fill="currentColor" fill-opacity="1" d="M 33.054688 96.804688 C 45.101562 102.070312 58.398438 100.570312 68.707031 93.980469 C 65.429688 93.8125 62.1875 93.414062 58.980469 92.832031 C 55.316406 92.171875 51.6875 91.261719 48.136719 90.148438 C 41.027344 87.917969 34.15625 84.925781 27.695312 81.21875 C 24.464844 79.363281 21.335938 77.316406 18.355469 75.085938 C 15.738281 73.117188 13.234375 71.011719 10.878906 68.714844 C 13.054688 80.761719 20.992188 91.546875 33.054688 96.804688 Z M 33.054688 96.804688 "/>
<path fill="currentColor" fill-opacity="1" d="M 0.925781 47.054688 C 2.289062 54.1875 7.363281 60.796875 12.449219 65.757812 C 18.730469 71.886719 26.308594 76.882812 34.132812 80.808594 C 46.714844 87.132812 61.472656 91.546875 75.667969 90.820312 C 81.050781 90.546875 86.773438 89.441406 91.390625 86.542969 C 93.019531 85.527344 94.542969 84.230469 95.785156 82.652344 C 98.21875 79.554688 99.230469 75.621094 98.730469 71.730469 C 98.128906 67.042969 95.738281 62.84375 92.8125 59.226562 C 91.585938 57.703125 90.300781 56.335938 89.015625 55.085938 C 89.433594 57.53125 89.628906 60.011719 89.605469 62.515625 C 89.59375 63.015625 89.582031 63.515625 89.558594 64.015625 C 89.832031 64.503906 90.09375 65.003906 90.34375 65.507812 C 91.835938 68.589844 93.0625 72.433594 91.6875 75.769531 C 90.753906 78.042969 88.671875 79.691406 86.410156 80.648438 C 81.609375 82.671875 75.921875 82.71875 70.824219 82.320312 C 56.296875 81.183594 41.859375 75.496094 29.539062 67.894531 C 28.148438 67.042969 26.796875 66.132812 25.464844 65.210938 C 19.003906 60.695312 12.121094 54.9375 9.015625 47.496094 C 7.433594 43.707031 7.5 39.554688 10.765625 36.722656 C 12.90625 34.859375 15.988281 33.707031 18.71875 33.058594 C 20.789062 30.945312 23.097656 29.054688 25.613281 27.417969 C 25.089844 27.394531 24.566406 27.371094 24.03125 27.359375 C 19.003906 27.246094 13.703125 27.828125 9.171875 30.183594 C 5.839844 31.910156 2.960938 34.6875 1.574219 38.179688 C 0.46875 40.976562 0.367188 44.09375 0.925781 47.054688 Z M 0.925781 47.054688 "/>
<path fill="currentColor" fill-opacity="1" d="M 22.382812 34.378906 C 20.4375 36.175781 18.671875 38.179688 17.136719 40.339844 C 15.304688 42.914062 12.460938 46.429688 13.828125 49.648438 C 14.601562 51.480469 16.011719 52.980469 17.410156 54.347656 C 27.308594 63.992188 39.867188 70.601562 52.960938 75.015625 C 61.039062 77.734375 69.492188 79.691406 78 79.339844 C 79.59375 79.273438 81.335938 79.054688 82.4375 77.90625 C 83.007812 77.316406 83.335938 76.554688 83.632812 75.789062 C 88.378906 63.539062 86.171875 48.851562 78.035156 38.542969 C 69.902344 28.238281 56.125 22.671875 43.109375 24.449219 C 36.226562 25.382812 29.6875 28.351562 24.316406 32.71875 C 23.644531 33.253906 23.007812 33.8125 22.382812 34.378906 Z M 22.382812 34.378906 "/>
<path fill="currentColor" fill-opacity="1" d="M 99.390625 17.019531 C 99.390625 22.863281 94.652344 27.597656 88.808594 27.597656 C 82.964844 27.597656 78.230469 22.863281 78.230469 17.019531 C 78.230469 11.175781 82.964844 6.4375 88.808594 6.4375 C 94.652344 6.4375 99.390625 11.175781 99.390625 17.019531 Z M 99.390625 17.019531 "/>
<path fill="currentColor" fill-opacity="1" d="M 61.699219 5.9375 C 61.699219 9.21875 59.039062 11.878906 55.761719 11.878906 C 52.480469 11.878906 49.820312 9.21875 49.820312 5.9375 C 49.820312 2.660156 52.480469 0 55.761719 0 C 59.039062 0 61.699219 2.660156 61.699219 5.9375 Z M 61.699219 5.9375 "/>
</g>
</svg>
