<svg version="1.0" xmlns="http://www.w3.org/2000/svg"
 width="100px" height="100px" viewBox="0 0 100 100"
 preserveAspectRatio="xMidYMid meet">
<g transform="translate(0.000000,100.000000) scale(0.044444,-0.044444)"
fill="currentColor" stroke="none">
<path d="M1052 2219 c-114 -22 -217 -97 -270 -197 -88 -164 -56 -351 80 -477
80 -74 147 -99 263 -99 116 0 183 25 263 99 102 94 147 224 123 354 -31 168
-152 289 -321 321 -60 11 -77 11 -138 -1z"/>
<path d="M385 2041 c-96 -25 -172 -87 -217 -179 -29 -58 -33 -76 -32 -142 1
-130 60 -228 176 -291 57 -30 71 -33 148 -34 71 0 94 4 140 26 53 26 108 72
136 115 12 18 10 28 -20 88 -45 89 -61 183 -47 273 12 80 7 89 -72 124 -56 23
-161 34 -212 20z"/>
<path d="M1681 2032 c-77 -28 -107 -53 -103 -88 13 -157 -1 -248 -56 -342
l-24 -43 27 -39 c104 -150 340 -170 488 -41 105 93 132 271 59 404 -71 132
-248 199 -391 149z"/>
<path d="M1050 1399 c-221 -37 -388 -250 -366 -468 12 -117 67 -363 112 -500
90 -274 197 -405 329 -405 132 0 239 131 329 405 45 137 100 383 112 500 28
279 -232 514 -516 468z"/>
<path d="M345 1339 c-109 -38 -188 -113 -232 -220 -13 -31 -18 -69 -17 -129 1
-153 84 -475 156 -612 129 -243 305 -235 433 20 l26 54 -30 126 c-49 203 -73
359 -67 428 8 75 37 165 73 218 l26 40 -24 19 c-86 71 -234 95 -344 56z"/>
<path d="M1685 1346 c-48 -15 -104 -43 -127 -64 -17 -14 -16 -18 11 -66 86
-154 86 -285 0 -637 l-31 -125 27 -55 c63 -125 144 -199 218 -199 38 0 97 26
130 58 96 92 192 355 234 643 16 110 16 118 -1 183 -34 125 -131 224 -255 260
-64 19 -150 20 -206 2z"/>
</g>
</svg>
