<?xml version="1.0" encoding="UTF-8"?>
<svg xmlns="http://www.w3.org/2000/svg" width="100px" height="100px" viewBox="0 0 100 100" version="1.1">
<g id="surface1">
<path fill="currentColor" d="M 36.335938 0.507812 C 14.996094 2.945312 -0.871094 21.476562 0.0742188 42.832031 C 0.75 57.964844 9.570312 71.257812 23.253906 77.800781 C 26.574219 79.390625 29.410156 80.332031 33.1875 81.105469 C 35.585938 81.613281 36.652344 81.683594 40.941406 81.683594 C 45.15625 81.683594 46.316406 81.585938 48.667969 81.128906 C 55.425781 79.777344 62.089844 76.6875 66.789062 72.730469 C 67.464844 72.152344 68.121094 71.667969 68.21875 71.667969 C 68.339844 71.667969 69.089844 72.320312 69.914062 73.140625 L 71.390625 74.613281 L 71.269531 76.230469 C 71.074219 79.152344 70.785156 78.765625 81.128906 89.140625 C 91.0625 99.082031 91.738281 99.664062 93.894531 99.664062 C 97.117188 99.664062 99.804688 96.984375 99.804688 93.773438 C 99.804688 91.625 99.226562 90.949219 89.246094 81.058594 C 78.828125 70.753906 79.214844 71.042969 76.285156 71.234375 L 74.660156 71.355469 L 73.183594 69.882812 C 72.359375 69.0625 71.707031 68.316406 71.707031 68.195312 C 71.707031 68.097656 72.191406 67.445312 72.769531 66.769531 C 76.695312 62.136719 79.84375 55.429688 81.203125 48.722656 C 81.660156 46.378906 81.757812 45.222656 81.757812 41.023438 C 81.757812 36.847656 81.660156 35.667969 81.203125 33.347656 C 76.9375 12.28125 57.535156 -1.90625 36.335938 0.507812 Z M 47.964844 7.84375 C 61.507812 10.8125 71.753906 21.257812 74.394531 34.796875 C 75.074219 38.25 75.121094 43.414062 74.515625 46.816406 C 71.921875 61.050781 61.046875 71.886719 46.753906 74.46875 C 43.675781 75.023438 38.152344 75.023438 35.246094 74.46875 C 22.722656 72.128906 12.742188 63.660156 8.769531 52.003906 C 7.414062 48.046875 7.144531 46.210938 7.144531 41.023438 C 7.144531 35.980469 7.386719 34.339844 8.625 30.476562 C 11.894531 20.4375 20.277344 12.089844 30.355469 8.832031 C 31.976562 8.324219 33.527344 7.964844 36.578125 7.382812 C 38.007812 7.117188 46.195312 7.457031 47.964844 7.84375 Z M 47.964844 7.84375 "/>
<path fill="currentColor" d="M 37.425781 12.789062 C 26.332031 15.128906 17.03125 23.480469 13.492188 34.265625 C 12.667969 36.777344 12.113281 40.226562 12.113281 42.6875 L 12.136719 44.761719 L 13.058594 42.566406 C 16.0625 35.519531 19.960938 29.828125 25.582031 24.324219 C 30.449219 19.570312 35.296875 16.3125 41.882812 13.34375 L 44.210938 12.308594 L 41.910156 12.332031 C 40.648438 12.332031 38.636719 12.546875 37.425781 12.789062 Z M 37.425781 12.789062 "/>
</g>
</svg>
