<svg version="1.0" xmlns="http://www.w3.org/2000/svg"
 width="100px" height="100px" viewBox="0 0 100 100"
 preserveAspectRatio="xMidYMid meet">
<g transform="translate(0,100) scale(0.011261,-0.011261)"
fill="currentColor" stroke="none">
<path d="M3286 7562 c-2 -1 -21 -4 -42 -6 -22 -2 -44 -4 -51 -5 -7 0 -18 -13
-26 -28 -7 -16 -18 -27 -24 -26 -6 1 -19 -7 -28 -17 -10 -11 -24 -20 -32 -20
-7 0 -13 -7 -13 -16 0 -14 2 -15 18 -3 15 13 16 12 3 -3 -7 -10 -17 -15 -22
-13 -4 3 -18 -13 -30 -37 -12 -24 -17 -44 -11 -46 13 -4 3 -42 -12 -42 -12 -1
-46 -63 -46 -85 0 -8 6 -15 13 -15 6 0 4 -5 -6 -11 -17 -10 -57 -79 -57 -99 0
-6 5 -8 10 -5 6 3 10 1 10 -4 0 -6 -7 -11 -16 -11 -10 0 -14 -6 -10 -15 3 -8
1 -15 -5 -15 -5 0 -17 -16 -25 -35 -18 -43 -18 -51 0 -35 13 10 13 8 3 -14 -7
-14 -16 -26 -20 -26 -4 0 -19 -23 -32 -52 -18 -39 -21 -54 -12 -60 7 -4 7 -8
1 -8 -10 0 -54 -81 -54 -101 0 -6 6 -7 13 -4 6 4 3 -1 -7 -9 -11 -9 -15 -16
-8 -16 6 0 0 -11 -13 -25 -22 -21 -30 -42 -26 -67 0 -5 -4 -8 -9 -8 -6 0 -10
-5 -10 -11 0 -5 5 -7 10 -4 6 3 10 2 10 -3 0 -6 -6 -12 -13 -15 -12 -5 -57
-86 -57 -103 0 -4 7 -1 15 6 13 11 14 10 9 -4 -3 -9 -10 -16 -15 -16 -9 0 -59
-95 -59 -114 0 -7 -9 -30 -19 -52 -11 -23 -17 -50 -14 -67 4 -19 1 -27 -8 -27
-20 0 -63 -94 -45 -98 10 -2 7 -10 -10 -28 -14 -13 -31 -39 -39 -57 -12 -28
-12 -33 3 -39 15 -6 15 -7 -2 -7 -12 -1 -16 -6 -12 -16 3 -8 1 -15 -4 -15 -5
0 -18 -18 -29 -41 -15 -30 -16 -39 -6 -35 18 7 7 -25 -12 -37 -8 -5 -23 -29
-34 -54 -22 -51 -23 -57 -9 -48 6 3 10 1 10 -4 0 -6 -4 -11 -9 -11 -6 0 -21
-23 -35 -51 -29 -57 -30 -59 -16 -59 6 0 10 6 10 14 0 8 4 18 10 21 15 10 -1
-28 -18 -42 -9 -7 -13 -13 -9 -13 3 0 -5 -16 -18 -36 -17 -25 -23 -44 -19 -63
4 -20 1 -30 -10 -34 -15 -6 -38 -44 -51 -86 -5 -16 -4 -21 4 -17 6 4 11 3 11
-2 0 -6 -6 -12 -13 -15 -21 -8 -59 -96 -52 -118 4 -10 2 -19 -3 -19 -6 0 -20
-19 -31 -41 -17 -32 -19 -40 -7 -36 13 5 13 2 4 -18 -6 -14 -15 -25 -20 -25
-6 0 -8 -5 -6 -12 2 -6 -6 -22 -18 -35 -29 -32 -37 -63 -16 -64 13 0 12 -3 -4
-10 -25 -13 -93 -134 -69 -125 22 8 18 -11 -6 -32 -24 -20 -62 -92 -48 -92 5
0 9 -7 9 -15 0 -8 -5 -15 -10 -15 -6 0 -20 -21 -30 -46 -23 -52 -24 -58 -10
-49 5 3 10 2 10 -3 0 -6 -6 -12 -13 -15 -15 -6 -40 -79 -29 -87 13 -9 12 -30
-1 -30 -7 0 -18 -15 -25 -33 -16 -45 -15 -55 3 -31 15 19 15 19 8 -1 -3 -11
-12 -29 -19 -40 -8 -13 -10 -26 -4 -35 5 -7 5 -21 0 -29 -8 -18 2 -55 19 -66
6 -3 11 -11 11 -16 0 -6 -4 -8 -9 -5 -5 4 -7 -4 -3 -16 12 -46 131 -140 132
-105 0 7 6 3 12 -8 8 -13 11 -108 11 -305 -1 -202 3 -287 11 -293 6 -5 -4 -5
-22 -2 -28 6 -39 1 -75 -28 -23 -19 -52 -53 -64 -77 -23 -42 -31 -68 -13 -40
8 13 10 12 10 -3 0 -10 -7 -25 -15 -33 -11 -12 -12 -20 -5 -35 7 -12 7 -19 1
-19 -12 0 -7 -30 9 -61 8 -14 8 -19 1 -15 -6 4 -11 5 -11 2 0 -15 35 -92 44
-98 8 -5 7 -8 -1 -8 -17 0 4 -70 28 -93 21 -19 26 -43 7 -31 -13 8 -11 -1 27
-101 15 -38 37 -84 51 -102 13 -17 19 -33 14 -35 -15 -5 39 -105 64 -116 17
-9 18 -11 4 -11 -21 -1 -15 -21 17 -66 12 -16 25 -38 29 -48 3 -11 15 -21 26
-24 11 -3 17 -9 14 -15 -3 -5 6 -18 20 -29 14 -11 26 -25 26 -30 0 -6 -7 -3
-16 6 -29 29 -28 6 2 -31 16 -20 35 -48 43 -62 18 -34 666 -682 681 -682 7 0
29 -13 50 -30 37 -29 66 -42 42 -18 -17 17 -15 33 3 18 8 -7 15 -19 15 -27 0
-10 7 -14 19 -10 13 3 21 -1 24 -12 5 -21 100 -78 104 -64 6 16 41 3 48 -16 3
-9 33 -31 66 -49 43 -23 60 -28 55 -17 -4 11 5 8 27 -9 41 -32 87 -50 87 -35
0 8 4 8 13 0 8 -6 17 -8 20 -4 4 3 7 1 7 -6 0 -18 63 -42 72 -28 6 9 8 9 8 0
0 -7 7 -10 15 -7 8 4 15 2 15 -4 0 -10 60 -35 76 -31 5 1 23 -4 39 -11 32 -14
100 -29 151 -34 17 -1 36 -6 43 -10 21 -14 74 -19 66 -7 -9 16 4 13 21 -4 18
-18 47 -19 76 -4 15 8 19 8 14 0 -11 -17 23 -26 53 -14 20 7 30 6 39 -4 15
-15 56 -18 47 -3 -3 6 -1 10 4 10 6 0 11 -4 11 -8 0 -11 39 -14 180 -13 192 1
243 5 248 19 2 6 8 12 13 12 6 0 7 -5 3 -11 -5 -8 3 -10 27 -6 19 4 55 8 82
11 26 2 54 9 62 16 9 8 15 9 15 2 0 -13 63 3 68 18 2 6 8 10 13 10 6 0 7 -4 4
-10 -10 -16 18 -12 60 10 21 11 41 16 45 11 3 -5 19 -3 38 4 18 8 35 14 39 14
3 -1 10 5 14 13 6 8 9 9 9 1 0 -11 11 -9 73 13 9 4 17 13 17 20 0 8 5 14 11
14 5 0 7 -4 4 -10 -9 -15 17 -12 59 5 20 8 36 21 36 28 0 8 6 14 13 14 6 0 19
3 27 5 8 3 12 3 8 1 -5 -3 -8 -9 -8 -14 0 -5 18 1 40 12 22 12 40 25 40 31 0
5 5 6 10 3 6 -3 10 -2 10 4 0 6 10 16 23 22 20 11 21 11 8 -4 -7 -10 -11 -17
-7 -17 18 0 111 58 123 77 9 13 22 23 31 23 13 0 12 -3 -4 -15 -36 -27 -2 -15
57 21 32 19 69 48 81 63 13 16 33 34 45 40 20 10 22 9 16 -5 -5 -13 -3 -15 8
-9 47 28 135 106 198 175 40 44 76 78 80 76 9 -6 174 158 166 165 -5 6 112
122 130 130 13 5 105 114 105 124 0 4 -8 1 -17 -6 -16 -13 -17 -12 -4 3 7 10
17 16 21 13 5 -3 25 18 45 46 20 28 31 49 23 47 -7 -2 -17 -14 -23 -26 -12
-28 -25 -29 -18 -2 3 11 18 29 34 40 15 11 46 48 68 81 42 63 53 91 26 69 -10
-8 -15 -9 -15 -2 0 6 9 16 20 22 19 10 80 104 80 124 0 5 -7 2 -17 -5 -15 -13
-15 -12 -4 9 6 12 16 22 22 22 6 0 7 5 4 10 -3 6 -1 10 4 10 6 0 18 16 26 36
17 42 18 47 6 40 -4 -3 -6 6 -3 19 2 14 10 25 18 25 15 0 44 61 43 89 0 12 -2
11 -9 -4 -7 -16 -9 -17 -9 -3 -1 9 11 29 25 45 14 16 23 35 21 45 -3 10 0 18
6 18 7 0 5 5 -3 10 -8 5 -10 10 -5 10 17 0 37 65 29 94 -3 15 -2 26 4 26 14 0
35 64 23 68 -7 2 -7 12 0 28 12 34 2 74 -27 102 -13 13 -24 28 -24 34 0 7 7 3
15 -8 8 -10 15 -14 15 -7 0 18 -74 97 -78 84 -2 -6 -8 -11 -12 -11 -16 0 -79
69 -69 75 13 9 11 52 -3 59 -10 5 -10 7 0 12 6 3 12 19 12 35 0 18 -4 28 -10
24 -6 -3 -10 -2 -10 4 0 5 5 13 10 16 15 9 13 68 -2 59 -10 -6 -10 -4 0 7 14
16 16 69 2 69 -5 0 -10 5 -10 11 0 5 5 7 10 4 6 -4 10 8 10 30 0 22 -4 34 -10
30 -5 -3 -10 -2 -10 4 0 5 5 13 10 16 14 9 12 55 -2 55 -9 0 -9 3 0 12 16 16
15 55 0 62 -10 5 -10 7 0 12 6 3 12 9 12 14 0 4 38 47 85 94 47 48 85 94 86
104 2 35 -3 67 -14 82 -11 13 -10 13 7 0 18 -14 18 -13 11 20 -4 19 -14 43
-23 53 -8 9 -10 17 -4 17 15 0 -4 62 -23 76 -8 6 -15 17 -15 25 0 11 2 11 10
-1 19 -30 18 -3 -1 40 -11 25 -20 47 -19 49 1 2 -4 8 -12 12 -10 7 -10 9 0 9
15 0 -7 59 -39 103 -11 16 -18 31 -15 34 3 4 6 0 6 -7 0 -7 2 -11 5 -8 9 9
-33 98 -49 104 -8 3 -16 14 -19 24 -3 13 -1 17 10 13 13 -5 13 -3 3 17 -11 21
-6 29 86 119 81 78 86 82 29 21 -39 -41 -82 -88 -95 -105 l-25 -29 35 28 c68
55 290 274 290 286 0 7 -6 10 -14 7 -11 -4 -11 -1 -2 19 6 13 16 24 23 24 17
0 28 61 13 70 -9 5 -9 9 -1 14 14 9 15 56 1 56 -7 0 -7 6 0 19 13 25 13 64 0
56 -5 -3 -10 -2 -10 4 0 5 4 13 10 16 6 3 10 17 10 31 0 14 -4 22 -10 19 -6
-4 -7 2 -1 17 10 28 9 198 -2 215 -4 6 -3 14 3 18 13 8 13 51 -1 77 -7 13 -7
18 -1 14 13 -8 13 104 0 121 -6 7 -5 14 2 18 13 8 13 55 0 55 -7 0 -7 7 0 21
7 12 9 32 4 47 -4 15 -6 31 -5 36 8 35 -20 78 -113 173 -55 58 -112 109 -126
115 -37 15 -61 18 -55 7 4 -5 -1 -9 -9 -9 -8 0 -17 4 -20 9 -9 14 -115 11
-130 -5 -8 -8 -21 -14 -28 -14 -10 0 -9 3 2 10 19 12 -1 13 -33 1 -18 -7 -207
-184 -207 -194 0 -1 -4 -17 -9 -35 -6 -20 -6 -30 0 -27 5 4 9 2 9 -4 0 -5 -5
-11 -12 -13 -11 -4 -17 -75 -18 -224 0 -53 -4 -73 -14 -77 -8 -3 -17 0 -20 8
-3 9 0 12 9 9 12 -5 11 0 -2 28 -9 18 -25 44 -37 57 -15 16 -17 25 -9 28 15 5
-21 83 -38 83 -6 0 -7 5 -4 10 3 6 1 10 -4 10 -6 0 -11 5 -11 11 0 5 5 7 11 3
18 -11 0 37 -31 83 -18 27 -23 40 -14 36 12 -4 9 7 -10 45 -14 28 -31 54 -37
58 -8 5 -8 8 0 13 8 5 6 13 -4 27 -15 19 -15 19 -9 -1 5 -16 4 -17 -5 -5 -5 8
-6 19 -2 23 11 11 -11 57 -28 57 -8 0 -11 6 -7 15 3 8 1 15 -4 15 -6 0 -10 5
-10 11 0 5 5 7 10 4 15 -9 13 0 -12 51 -11 25 -27 48 -35 51 -7 3 -13 9 -13
15 0 5 5 6 10 3 15 -9 12 7 -10 54 -12 23 -27 44 -35 48 -17 6 -21 33 -5 33
13 0 -41 101 -59 108 -12 5 -12 6 2 11 14 5 14 11 -6 53 -12 27 -28 48 -34 48
-7 0 -13 8 -12 18 0 10 3 12 6 5 2 -7 9 -13 15 -13 7 0 7 4 1 13 -5 6 -16 28
-23 47 -7 19 -20 44 -29 54 -13 16 -14 18 -1 12 8 -4 4 2 -10 13 -16 14 -19
19 -7 15 15 -5 14 1 -8 44 -14 27 -25 57 -25 66 0 9 -4 16 -10 16 -5 0 -7 -8
-4 -17 5 -15 4 -16 -5 -3 -5 8 -6 19 -2 23 9 9 -12 60 -38 91 -10 13 -11 17
-2 11 10 -6 12 -2 6 16 -17 56 -83 133 -136 159 -22 10 -39 14 -39 9 0 -13
-28 -11 -32 3 -2 6 -30 12 -70 13 -37 0 -65 -2 -62 -7 3 -4 0 -8 -5 -8 -6 0
-11 4 -11 9 0 16 -236 7 -256 -10 -15 -12 -16 -12 -9 0 5 10 4 12 -3 7 -15 -9
-17 -3103 -2 -3126 5 -8 15 -15 22 -15 7 0 12 -7 10 -16 -2 -17 34 -55 69 -73
12 -6 24 -17 27 -24 3 -10 -4 -9 -24 4 l-29 18 23 -25 c12 -14 22 -29 22 -34
0 -4 11 -23 25 -41 14 -18 25 -37 25 -43 0 -6 9 -15 21 -22 14 -7 19 -17 16
-30 -3 -11 2 -37 11 -57 8 -20 15 -40 14 -44 -1 -5 2 -8 7 -8 5 0 7 -9 4 -20
-3 -11 4 -35 16 -55 11 -19 16 -35 12 -35 -5 0 -7 -12 -5 -27 3 -16 6 -45 7
-66 2 -21 9 -42 17 -47 11 -7 11 -10 2 -10 -8 0 -12 -13 -11 -38 0 -20 -2 -52
-6 -69 -5 -24 -4 -33 5 -33 9 0 9 -4 2 -13 -17 -20 -23 -67 -9 -67 8 0 9 -3 1
-8 -24 -16 -43 -102 -22 -102 8 0 4 -8 -9 -18 -12 -9 -28 -34 -37 -56 -19 -45
-19 -49 -6 -41 6 3 10 1 10 -5 0 -6 -7 -13 -15 -16 -8 -4 -15 -10 -15 -16 0
-5 6 -6 13 -2 7 4 9 3 4 -2 -5 -5 -13 -9 -19 -9 -6 0 -16 -9 -22 -20 -6 -11
-23 -36 -37 -55 -44 -60 -46 -67 -14 -46 l30 19 -24 -27 c-14 -14 -21 -26 -16
-26 4 0 -42 -49 -102 -110 -61 -60 -114 -110 -119 -110 -4 0 -19 -10 -32 -22
l-25 -23 19 30 c21 33 22 33 -71 -29 -33 -21 -68 -49 -77 -60 -13 -16 -20 -18
-28 -10 -9 9 -22 7 -51 -7 -21 -11 -39 -24 -39 -29 0 -6 -5 -10 -11 -10 -5 0
-8 4 -5 9 4 5 -8 6 -27 1 -49 -12 -67 -21 -61 -31 3 -5 0 -9 -5 -9 -6 0 -11 4
-11 9 0 13 -39 9 -67 -7 -13 -7 -23 -9 -23 -4 0 5 -44 8 -97 6 -54 -1 -116 2
-137 7 -30 8 -41 8 -47 -3 -6 -8 -9 -9 -9 -2 0 12 -34 25 -80 30 -14 1 -43 12
-64 23 -38 20 -66 20 -36 1 13 -8 12 -10 -2 -10 -10 0 -18 7 -18 17 0 9 -3 14
-6 11 -3 -3 -31 11 -62 32 -39 27 -59 35 -64 27 -5 -9 -11 -8 -20 2 -11 11
-11 13 1 6 10 -5 12 -4 7 4 -4 6 -12 9 -17 6 -11 -7 -349 327 -349 345 0 7 9
2 21 -11 16 -19 14 -12 -8 29 -15 30 -43 70 -60 90 -18 20 -33 41 -33 46 0 6
7 3 14 -6 17 -23 29 -23 18 0 -5 9 -18 35 -28 57 -10 22 -23 43 -29 47 -6 5
-6 8 2 8 11 0 10 30 -1 49 -4 5 -8 30 -11 56 -2 26 -9 53 -15 60 -7 8 -8 28
-4 49 4 24 2 36 -5 36 -6 0 -11 5 -11 11 0 5 5 7 11 3 9 -5 10 6 7 40 -3 25
-2 49 3 52 5 3 9 19 9 35 0 22 -4 28 -12 23 -9 -6 -9 -3 0 9 17 20 45 110 32
102 -5 -3 -11 -1 -15 5 -3 5 0 10 8 10 15 0 47 61 46 88 0 14 -2 14 -9 -3 -7
-16 -9 -17 -9 -3 -1 9 9 28 22 41 20 22 67 102 67 114 0 3 -7 0 -15 -7 -12
-10 -15 -10 -15 0 0 6 9 14 20 17 11 3 20 10 20 15 0 5 -5 6 -10 3 -6 -4 25
31 70 76 44 46 80 92 80 102 0 11 -5 15 -11 11 -8 -4 -8 -1 -1 12 15 28 14
306 -1 297 -9 -5 -9 -3 0 8 15 18 16 219 1 219 -7 0 -7 4 0 13 13 16 13 449
-1 440 -5 -3 -5 3 1 13 13 25 14 214 1 214 -6 0 -6 6 0 18 12 22 11 432 -1
432 -5 0 -5 8 1 18 14 26 12 373 -3 365 -6 -3 -6 0 2 8 14 15 17 73 3 65 -5
-4 -4 7 2 24 9 22 9 38 0 60 -6 17 -7 28 -2 24 5 -3 9 6 9 20 0 14 -5 26 -12
26 -9 0 -9 3 0 12 15 15 16 58 2 58 -7 0 -7 6 -1 18 13 24 11 362 -3 362 -6 0
-5 5 2 12 15 15 16 72 1 62 -8 -4 -8 -1 -1 13 15 26 13 136 -1 145 -9 6 -9 8
1 8 7 0 12 13 12 30 0 17 -5 30 -10 30 -7 0 -7 7 -2 18 16 32 9 57 -15 56 -13
0 -23 3 -23 6 0 7 -328 9 -334 2z"/>
<path d="M4217 6363 c-39 -2 -65 -8 -62 -13 4 -6 1 -10 -4 -10 -6 0 -11 4 -11
9 0 5 -10 7 -22 3 -38 -10 -89 -82 -58 -82 6 0 10 -8 10 -17 0 -15 -2 -16 -10
-3 -7 11 -10 1 -9 -35 0 -37 3 -45 9 -30 8 19 9 19 9 -2 1 -13 -3 -23 -9 -23
-5 0 -10 -15 -9 -32 0 -28 2 -30 9 -13 8 19 9 19 9 -2 1 -13 -3 -23 -9 -23
-14 0 -12 -47 3 -54 10 -5 10 -7 0 -12 -15 -7 -17 -54 -3 -54 6 0 10 -10 10
-22 0 -19 -2 -20 -10 -8 -8 12 -10 9 -10 -12 0 -16 5 -28 10 -28 6 0 10 -9 10
-20 0 -11 -4 -20 -10 -20 -5 0 -10 -9 -10 -20 0 -11 5 -20 10 -20 6 0 10 -7
10 -15 0 -8 -4 -15 -10 -15 -5 0 -10 -14 -10 -31 0 -17 4 -28 10 -24 6 3 10
-1 10 -9 0 -9 -4 -16 -10 -16 -5 0 -10 -12 -10 -26 0 -14 4 -23 10 -19 6 3 10
-1 10 -9 0 -9 -4 -16 -10 -16 -5 0 -10 -11 -10 -25 0 -14 5 -25 10 -25 6 0 10
-7 10 -16 0 -8 -4 -12 -10 -9 -6 4 -10 -11 -9 -37 0 -33 2 -38 9 -23 8 19 9
19 9 -2 1 -13 -3 -23 -9 -23 -5 0 -10 -15 -9 -32 0 -28 2 -30 9 -13 8 19 9 19
9 -2 1 -13 -3 -23 -9 -23 -5 0 -10 -14 -10 -31 0 -17 4 -28 10 -24 6 3 10 1
10 -4 0 -6 -4 -11 -10 -11 -5 0 -10 -14 -10 -31 0 -17 4 -28 10 -24 6 3 10 -1
10 -10 0 -9 -4 -13 -10 -10 -6 4 -10 -5 -10 -19 0 -14 5 -26 10 -26 6 0 10
-10 10 -22 0 -19 -2 -20 -10 -8 -7 11 -10 7 -10 -17 0 -18 5 -33 10 -33 6 0
10 -8 10 -17 0 -15 -2 -16 -10 -3 -7 11 -10 3 -10 -30 0 -33 3 -41 10 -30 8
12 10 11 10 -7 0 -13 -4 -23 -10 -23 -14 0 -12 -47 3 -54 10 -5 10 -7 0 -12
-7 -3 -13 -16 -13 -29 0 -13 6 -26 13 -29 10 -5 10 -7 0 -12 -8 -3 -13 -23
-12 -47 0 -33 2 -38 9 -22 8 19 9 19 9 -2 1 -13 -3 -23 -9 -23 -16 0 -12 -42
7 -62 15 -17 15 -18 -1 -18 -9 0 -14 -5 -11 -10 5 -8 11 -7 20 0 8 7 23 9 35
5 14 -5 20 -2 20 9 0 15 20 18 30 4 10 -13 60 4 60 21 0 9 3 12 8 6 4 -6 68
-10 157 -10 155 0 209 -4 235 -15 34 -16 72 -21 64 -9 -5 8 -3 9 7 3 8 -5 19
-9 24 -9 17 -1 37 25 31 40 -3 8 -2 15 2 15 5 0 8 92 9 205 0 112 -3 203 -6
201 -3 -2 -6 7 -6 20 0 13 3 24 7 24 9 0 3 203 -7 219 -5 9 -4 12 2 8 12 -8
12 872 0 891 -5 7 -24 12 -46 11 -20 -2 -43 1 -49 5 -14 8 -323 14 -435 9z"/>
<path d="M4328 4364 c-4 -3 -12 -7 -20 -8 -7 -1 -24 -8 -38 -15 -23 -11 -24
-11 -6 3 11 9 14 16 8 16 -20 0 -102 -41 -102 -51 0 -5 -8 -9 -17 -9 -15 0
-16 2 -3 10 8 5 12 11 9 14 -20 20 -266 -203 -323 -292 -27 -43 -34 -68 -16
-57 6 3 10 1 10 -4 0 -6 -4 -11 -9 -11 -10 0 -41 -61 -41 -80 0 -6 4 -9 9 -6
5 4 7 -3 4 -14 -3 -11 -10 -20 -16 -20 -6 0 -8 -3 -5 -6 4 -3 2 -19 -2 -35 -5
-17 -5 -29 0 -29 5 0 4 -12 -2 -26 -9 -19 -9 -30 0 -44 9 -14 8 -20 -1 -23 -9
-3 -8 -15 4 -50 9 -26 13 -44 8 -42 -4 3 -1 -15 8 -41 8 -25 22 -48 29 -51 8
-3 14 -9 14 -15 0 -5 -4 -7 -9 -4 -13 9 -7 -22 7 -36 7 -7 12 -18 12 -24 0
-19 210 -229 253 -253 44 -25 54 -26 37 -7 -10 13 -8 13 14 3 14 -7 26 -16 26
-20 0 -9 62 -37 80 -37 6 0 8 5 5 10 -3 6 -1 10 4 10 6 0 11 -4 11 -10 0 -15
67 -29 104 -20 19 4 36 4 38 0 2 -4 20 -5 40 -2 21 2 35 8 32 13 -3 5 0 9 5 9
6 0 11 -4 11 -9 0 -13 42 -4 51 10 4 6 12 8 18 5 6 -4 11 -1 11 6 0 9 2 10 8
2 9 -15 85 13 75 29 -4 6 -1 7 6 3 7 -5 19 0 27 10 13 15 15 16 11 3 -5 -15
-3 -15 26 -1 77 38 287 274 229 256 -14 -5 -14 -3 2 10 10 8 15 20 10 27 -4 7
-3 10 3 6 15 -9 46 51 40 81 -3 15 1 31 9 39 8 8 14 31 15 51 0 20 2 45 4 54
2 10 -1 21 -6 24 -6 4 -6 11 1 19 7 9 9 23 4 37 -4 13 -7 33 -5 46 1 13 -5 35
-14 49 -10 14 -12 22 -5 18 9 -5 10 -1 5 16 -13 42 -34 78 -52 88 -20 11 -21
20 -3 31 14 9 -30 81 -89 144 -37 39 -118 103 -158 125 -19 10 -22 9 -16 -5 5
-14 3 -14 -17 -2 -12 7 -33 23 -46 36 -13 12 -30 22 -38 22 -8 0 -22 3 -32 7
-12 4 -15 3 -10 -5 4 -7 2 -12 -3 -12 -6 0 -11 4 -11 9 0 24 -128 35 -190 17
-19 -6 -22 -5 -10 3 13 9 13 11 -1 11 -9 0 -18 -3 -21 -6z"/>
</g>
</svg>
