<?xml version="1.0" encoding="UTF-8"?>
<svg xmlns="http://www.w3.org/2000/svg"  width="100px" height="100px" viewBox="0 0 100 100" version="1.1">
<g id="surface1">
<path fill="currentColor" d="M 44.25 5.300781 C 43.699219 5.398438 42 5.75 40.5 6.050781 C 39 6.351562 35.851562 7.398438 33.550781 8.398438 C 31.101562 9.398438 29.25 9.949219 29.148438 9.648438 C 29.050781 9.351562 28.648438 8.699219 28.25 8.199219 C 27.601562 7.300781 27.398438 7.398438 24.75 10 C 21.101562 13.550781 18 18.199219 18 20.050781 C 18 20.851562 17.449219 22.398438 16.800781 23.449219 C 12.75 29.851562 11.101562 36.800781 10.5 50 C 10 61.351562 9.199219 66.398438 7.25 71.101562 C 3.949219 78.949219 3.898438 79.148438 4.148438 82.351562 C 4.75 90 11.300781 95.601562 18.800781 94.851562 C 22.351562 94.5 24.148438 93.449219 28.300781 89.5 C 30.898438 86.949219 32.300781 85.949219 33.800781 85.648438 C 36.351562 85.101562 63.648438 85.101562 66.199219 85.648438 C 67.699219 85.949219 69.101562 86.949219 71.699219 89.5 C 75.851562 93.449219 77.648438 94.5 81.199219 94.851562 C 88.699219 95.601562 95.25 90 95.851562 82.351562 C 96.101562 79.699219 95.898438 78.699219 94.75 76 C 91.898438 69.148438 91.398438 67.648438 90.699219 64 C 90.300781 61.949219 89.75 55.648438 89.5 50 C 88.949219 38 88.050781 33.601562 84.800781 26.75 C 79.398438 15.398438 70.648438 8.398438 58.898438 5.949219 C 54.699219 5.101562 47.050781 4.75 44.25 5.300781 Z M 60.25 9.25 C 72.5 12.550781 80.851562 21.800781 84.300781 35.699219 C 84.75 37.5 85.25 43.25 85.5 49.5 C 86.101562 63.25 86.898438 67.851562 89.75 74.050781 C 91 76.648438 92 79.449219 92 80.199219 C 92 86.101562 87 91 80.949219 91 C 78.449219 91 74.5 88.851562 73.050781 86.699219 C 70.75 83.300781 68.300781 82.101562 62.398438 81.25 L 60 80.949219 L 60 74 C 60 67.5 59.949219 67.050781 59 66.75 C 58.449219 66.601562 57.550781 66.601562 57 66.75 C 56.050781 67.050781 56 67.5 56 74.050781 L 56 81 L 52 81 L 52 73.050781 C 52 65.5 51.949219 65.050781 51 64.75 C 50.449219 64.601562 49.550781 64.601562 49 64.75 C 48.050781 65.050781 48 65.5 48 73.050781 L 48 81 L 44 81 L 44 74.050781 C 44 67.5 43.949219 67.050781 43 66.75 C 42.449219 66.601562 41.550781 66.601562 41 66.75 C 40.050781 67.050781 40 67.5 40 74 L 40 80.898438 L 37.898438 81.25 C 31.648438 82.148438 30.898438 82.5 27.5 86.050781 C 24.101562 89.601562 21.648438 91 18.898438 91 C 13 91 8 86.050781 8 80.199219 C 8 79.449219 9 76.648438 10.25 74.050781 C 13.101562 67.898438 13.898438 63.351562 14.5 49.5 C 14.75 43.050781 15.25 37.449219 15.75 35.5 C 16.601562 31.898438 18.949219 25.601562 19.550781 25.199219 C 19.75 25.101562 20.699219 25.449219 21.601562 26 C 23.75 27.300781 27.25 27.300781 29.351562 26 C 32.75 23.949219 33.75 20.398438 32.050781 16.050781 C 31.300781 14.101562 31.199219 13.148438 31.550781 12.699219 C 32.300781 11.800781 38.101562 9.601562 42 8.75 C 46.050781 7.851562 55.949219 8.101562 60.25 9.25 Z M 28.5 14.101562 C 30.800781 19.449219 30.148438 22.25 26.5 22.800781 C 22.601562 23.398438 20.199219 20.800781 21.699219 17.601562 C 22.5 15.949219 26.351562 11.5 27 11.5 C 27.199219 11.5 27.898438 12.699219 28.5 14.101562 Z M 28.5 14.101562 "/>
<path fill="currentColor" d="M 25.199219 50.75 C 24.699219 52 25.199219 52.550781 27.75 53.5 C 29.148438 54 31.300781 54.800781 32.648438 55.300781 C 35 56.25 35.050781 56.25 38.148438 55.050781 C 39.851562 54.398438 42.050781 53.601562 43 53.25 C 44.101562 52.851562 44.800781 52.199219 44.898438 51.550781 C 45.199219 49.800781 43.648438 49.75 39.449219 51.5 C 35.050781 53.300781 33.949219 53.300781 29.601562 51.25 C 26.5 49.800781 25.601562 49.699219 25.199219 50.75 Z M 25.199219 50.75 "/>
<path fill="currentColor" d="M 55.199219 50.75 C 54.75 51.949219 55.199219 52.550781 57 53.25 C 57.949219 53.601562 60.148438 54.398438 61.851562 55.050781 C 64.949219 56.25 65 56.25 67.351562 55.300781 C 68.699219 54.800781 70.898438 54 72.25 53.5 C 74 52.851562 74.800781 52.25 74.898438 51.550781 C 75.148438 49.851562 73.699219 49.75 70.449219 51.199219 C 65.898438 53.25 64.75 53.300781 60.648438 51.550781 C 56.648438 49.800781 55.601562 49.648438 55.199219 50.75 Z M 55.199219 50.75 "/>
</g>
</svg>
